<svg width="171" height="199" viewBox="0 0 171 199" fill="none" xmlns="http://www.w3.org/2000/svg">
<rect x="29.3496" y="12.3789" width="140" height="166" rx="5" transform="rotate(-0.508069 29.3496 12.3789)" fill="#44A8D1"/>
<mask id="path-2-inside-1_1003_169" fill="white">
<rect x="24.1938" width="140" height="166" rx="5" transform="rotate(8.38044 24.1938 0)"/>
</mask>
<rect x="24.1938" width="140" height="166" rx="5" transform="rotate(8.38044 24.1938 0)" fill="white" stroke="#1C4E63" stroke-width="14" mask="url(#path-2-inside-1_1003_169)"/>
<path d="M41.9106 30L111.163 40.2022" stroke="#1C4E63" stroke-width="5" stroke-linecap="round"/>
<path d="M39.4329 46.8184L135.397 60.9557" stroke="#1C4E63" stroke-width="5" stroke-linecap="round"/>
<path d="M36.9553 63.637L132.92 77.7743" stroke="#1C4E63" stroke-width="5" stroke-linecap="round"/>
<path d="M34.4775 80.4553L130.442 94.5926" stroke="#1C4E63" stroke-width="5" stroke-linecap="round"/>
<path d="M32 97.2739L79.4875 104.27" stroke="#1C4E63" stroke-width="5" stroke-linecap="round"/>
<circle cx="95" cy="150" r="47.5" fill="white" stroke="#1C4E63" stroke-width="3"/>
<path d="M106.615 117.072C105.729 118.4 104.678 119.646 103.46 120.808C102.243 121.97 100.901 122.993 99.4346 123.879C97.9958 124.764 96.474 125.47 94.8691 125.996C93.2643 126.494 91.6595 126.743 90.0547 126.743L89.1001 126.826C88.0487 128.154 87.2463 129.44 86.6929 130.686C86.1395 131.931 85.8628 133.397 85.8628 135.085V161.606C85.8628 165.286 85.0742 168.565 83.4971 171.442C81.9476 174.292 79.651 176.755 76.6074 178.83L75.2378 177.253C75.7082 176.727 76.0817 176.132 76.3584 175.468C76.6351 174.777 76.8426 174.071 76.981 173.352C77.1193 172.632 77.2023 171.913 77.23 171.193C77.2853 170.446 77.313 169.741 77.313 169.077V139.899C77.313 138.599 77.5758 137.34 78.1016 136.123C78.6549 134.877 79.3467 133.701 80.1768 132.595C81.0068 131.488 81.9199 130.45 82.916 129.482C83.9398 128.514 84.922 127.628 85.8628 126.826L72.125 126.743C71.0736 126.743 70.1328 126.853 69.3027 127.075C68.5003 127.268 67.7533 127.559 67.0615 127.946C66.3698 128.334 65.7057 128.818 65.0693 129.399C64.4329 129.98 63.7827 130.658 63.1187 131.433L61.915 130.146C62.8281 128.901 63.8519 127.587 64.9863 126.203C66.1484 124.82 67.3936 123.561 68.7217 122.426C70.0775 121.292 71.5163 120.351 73.0381 119.604C74.5876 118.857 76.2062 118.483 77.894 118.483H95.8237C96.5431 118.483 97.3455 118.442 98.231 118.359C99.144 118.276 100.057 118.138 100.97 117.944C101.883 117.75 102.741 117.501 103.543 117.197C104.374 116.865 105.065 116.45 105.619 115.952L106.615 117.072Z" fill="#44A8D1"/>
<path d="M127.188 176.719C126.875 177.323 126.479 177.906 126 178.469C125.542 179.031 125.01 179.531 124.406 179.969C123.823 180.385 123.198 180.729 122.531 181C121.865 181.25 121.177 181.375 120.469 181.375C119.302 181.375 118.281 181.156 117.406 180.719C116.552 180.281 115.823 179.698 115.219 178.969C114.635 178.219 114.198 177.365 113.906 176.406C113.615 175.448 113.469 174.438 113.469 173.375V146.375C113.469 145.875 113.469 145.333 113.469 144.75C113.469 144.146 113.438 143.552 113.375 142.969C113.333 142.385 113.24 141.823 113.094 141.281C112.948 140.74 112.729 140.271 112.438 139.875C112.146 139.458 111.76 139.125 111.281 138.875C110.823 138.625 110.24 138.5 109.531 138.5C108.344 138.5 107.281 138.854 106.344 139.562C105.406 140.271 104.573 141.198 103.844 142.344C103.135 143.469 102.521 144.75 102 146.188C101.5 147.604 101.083 149.031 100.75 150.469C100.438 151.906 100.208 153.281 100.062 154.594C99.9167 155.906 99.8438 157.01 99.8438 157.906V179.531L93.375 181.906V137.156L99.8438 134.844V146.625C100.26 145.104 100.812 143.646 101.5 142.25C102.208 140.833 103.062 139.583 104.062 138.5C105.083 137.417 106.271 136.562 107.625 135.938C109 135.292 110.573 134.969 112.344 134.969C113.677 134.969 114.823 135.219 115.781 135.719C116.74 136.198 117.521 136.854 118.125 137.688C118.75 138.521 119.208 139.49 119.5 140.594C119.792 141.698 119.938 142.854 119.938 144.062V174.406C119.938 174.823 119.979 175.24 120.062 175.656C120.167 176.073 120.312 176.458 120.5 176.812C120.708 177.146 120.979 177.417 121.312 177.625C121.646 177.833 122.062 177.938 122.562 177.938C123.271 177.938 123.938 177.719 124.562 177.281C125.208 176.844 125.74 176.354 126.156 175.812L127.188 176.719Z" fill="#44A8D1"/>
</svg>
