<svg width="260" height="230" viewBox="0 0 260 230" fill="none" xmlns="http://www.w3.org/2000/svg">
<path d="M133.85 227.824L254.944 156.259C258.797 154.094 262.108 150.541 258.346 148.209L136.817 78.1741C134.995 77.0456 132.228 76.3016 130.372 77.3799L3.25912 151.135C-0.594558 153.375 -1.28839 159.628 2.57365 161.868L117.933 227.699C120.348 229.097 123.085 229.844 125.875 229.866C128.665 229.888 131.413 229.184 133.85 227.824Z" fill="#00375D"/>
<path opacity="0.32" d="M27.2504 170.638L51.7685 156.536L31.3465 148.837L8.80127 161.167C14.7499 164.701 20.9114 167.864 27.2504 170.638Z" fill="url(#paint0_linear_853_1049)"/>
<path d="M28.2954 138.06V153.207H52.7968V138.06" fill="#F8997C"/>
<path d="M40.5503 144.086C47.3185 144.086 52.8051 141.388 52.8051 138.059C52.8051 134.731 47.3185 132.032 40.5503 132.032C33.7821 132.032 28.2954 134.731 28.2954 138.059C28.2954 141.388 33.7821 144.086 40.5503 144.086Z" fill="#DD654A"/>
<path d="M40.5503 159.82C47.3185 159.82 52.8051 157.121 52.8051 153.793C52.8051 150.464 47.3185 147.766 40.5503 147.766C33.7821 147.766 28.2954 150.464 28.2954 153.793C28.2954 157.121 33.7821 159.82 40.5503 159.82Z" fill="#F8997C"/>
<path d="M54.2683 102.844C51.6852 101.791 48.099 98.2629 44.9726 98.3716C43.7605 101.297 43.4261 104.708 43.075 107.667C42.4816 112.817 42.364 118.011 42.7239 123.182C42.7964 124.336 42.8911 125.484 43.0082 126.626C43.0396 126.964 43.1331 127.293 43.284 127.596C43.284 131.592 43.284 135.588 43.284 139.583C43.2976 139.675 43.3434 139.758 43.4133 139.818C43.4831 139.878 43.5722 139.911 43.6644 139.911C43.7566 139.911 43.8457 139.878 43.9155 139.818C43.9853 139.758 44.0312 139.675 44.0447 139.583C44.0447 135.738 44.0447 131.893 44.0447 128.047C45.2729 127.642 46.4508 127.098 47.5557 126.426C49.8612 124.982 51.6042 122.793 52.4961 120.223C54.4772 114.714 53.2233 108.57 55.1042 103.12C54.8116 103.053 54.5358 102.961 54.2683 102.844Z" fill="#297600"/>
<path d="M48.9682 93.8225C47.4926 94.6798 46.2721 95.9148 45.4322 97.4003C45.2134 97.7349 45.0286 98.0906 44.8805 98.462L44.7718 98.696C44.5377 99.3158 44.3423 99.9496 44.1866 100.594C44.4828 100.105 44.9461 99.7393 45.4907 99.5654C46.1344 99.2808 46.8533 99.2133 47.5388 99.3731C48.2021 99.6285 48.8311 99.9655 49.4113 100.376C50.2472 100.903 51.1249 101.496 51.9943 102.048C56.057 104.631 61.4571 104.89 64.5919 101.137C64.5919 100.986 64.6672 100.836 64.7006 100.686C65.1938 98.1192 57.9713 88.6062 48.9682 93.8225Z" fill="#5FAD00"/>
<path d="M62.8282 102.733C62.9954 102.616 63.1626 102.508 63.3381 102.399C63.3449 102.346 63.3393 102.292 63.3219 102.241C63.3045 102.19 63.2758 102.144 63.2378 102.106C60.7802 99.5985 58.1469 97.0907 54.7948 95.8703C52.3973 94.9595 49.8008 94.7028 47.2714 95.1263C46.9955 95.4439 46.7531 95.7783 46.5023 96.1127C49.2358 95.2015 52.6883 95.7699 55.171 96.8316C58.1386 98.0938 60.4959 100.359 62.6945 102.641C62.7316 102.682 62.7773 102.713 62.8282 102.733Z" fill="#297600"/>
<path d="M21.6999 108.228C19.9291 109.151 18.4672 110.572 17.4942 112.315C16.5213 114.059 16.0799 116.05 16.2245 118.041C16.5171 125.272 28.4292 118.209 31.589 112.115C34.7489 106.021 35.2505 114.714 35.2505 114.714" fill="#297600"/>
<path d="M32.4166 105.7C30.1782 105.662 27.9474 105.972 25.8043 106.62C24.366 106.963 22.9819 107.503 21.6915 108.225C22.4404 108.728 23.2387 109.154 24.074 109.496C25.5703 110.098 27.1335 110.85 27.9193 112.254C28.1111 112.599 28.2653 112.963 28.379 113.341C29.1063 115.715 28.4794 118.607 29.4574 120.998C30.4355 123.389 32.4333 125.504 35.2421 125.671C38.5859 125.872 40.1323 122.653 40.8011 119.861C41.4698 117.069 42.3727 113.266 41.311 110.398C40.0822 107.055 35.5932 105.851 32.4166 105.7Z" fill="#5FAD00"/>
<path d="M36.8388 116.987C35.4344 112.423 32.4417 108.11 28.0698 106.12H27.8775L27.6685 106.187L26.8744 106.388C31.9653 108.277 35.1669 113.301 36.471 118.425C38.1428 124.987 37.5744 132.093 37.5911 138.797C37.5911 138.89 37.6281 138.979 37.694 139.045C37.7598 139.111 37.8491 139.148 37.9422 139.148C38.0353 139.148 38.1246 139.111 38.1905 139.045C38.2563 138.979 38.2933 138.89 38.2933 138.797C38.31 131.616 38.9788 123.926 36.8388 116.987Z" fill="#297600"/>
<path d="M219.383 139.991C218.913 139.993 218.448 139.893 218.02 139.698L217.811 141.069L239.897 141.638V139.966L219.383 139.991Z" fill="#EF8A3F"/>
<path d="M218.012 139.749L217.811 141.07L230.008 148.108V146.437C225.895 144.447 221.932 142.115 218.012 139.749Z" fill="#EF8A3F"/>
<path d="M230.325 44.5353C229.603 44.6583 228.861 44.5531 228.202 44.2344L214.217 152.179C215.053 152.697 215.947 153.157 216.808 153.65L230.961 44.4601L230.325 44.5353Z" fill="#EF8A3F"/>
<path d="M233.519 44.4111C233.01 44.4666 232.497 44.4666 231.989 44.4111C231.579 44.4111 231.153 44.4111 230.76 44.4696L240.206 155.173C240.932 154.818 241.678 154.503 242.438 154.228L242.806 154.036H242.873L233.519 44.4111Z" fill="#EF8A3F"/>
<path d="M232.014 44.4189C231.455 44.4211 230.896 44.4602 230.342 44.536C230.122 44.5534 229.901 44.5534 229.682 44.536L228.762 161.567C229.237 161.4 229.747 161.36 230.242 161.45H231.078L231.546 161.4L232.465 44.4607L232.014 44.4189Z" fill="#EF8A3F"/>
<path d="M216.75 46.2832V70.4586C216.75 70.4586 244.57 71.2945 244.57 70.4586V46.2832" fill="#FF6753"/>
<path d="M230.66 52.6792C238.342 52.6792 244.57 49.7937 244.57 46.2342C244.57 42.6746 238.342 39.7891 230.66 39.7891C222.977 39.7891 216.75 42.6746 216.75 46.2342C216.75 49.7937 222.977 52.6792 230.66 52.6792Z" fill="#D64338"/>
<path d="M230.66 77.272C238.342 77.272 244.57 74.3865 244.57 70.8269C244.57 67.2674 238.342 64.3818 230.66 64.3818C222.977 64.3818 216.75 67.2674 216.75 70.8269C216.75 74.3865 222.977 77.272 230.66 77.272Z" fill="#FF6753"/>
<path opacity="0.32" d="M241.31 154.729L201.226 177.785L184.758 166.775L214.217 152.18" fill="url(#paint1_linear_853_1049)"/>
<path d="M152.876 202.169C148.212 198.606 143.225 195.488 137.979 192.856C130.865 197.036 127.639 199.544 116.688 205.763C124.972 210.779 131.392 215.427 132.328 215.979L146.414 207.343C146.581 206.808 152.75 202.712 152.876 202.169Z" fill="url(#paint2_linear_853_1049)"/>
<path d="M104.934 116.576L167.421 152.472V39.996C167.421 39.996 167.872 34.4704 163.617 33.9438L104.934 11.5322V116.576Z" fill="#6AC1F0"/>
<path opacity="0.14" d="M104.749 116.683L167.236 152.578V40.1024C167.236 40.1024 167.687 34.5768 163.432 34.0502L104.749 11.6387V116.683Z" fill="black"/>
<path d="M157.941 49.1503C157.941 49.1503 156.846 36.6112 165.807 35.1149L105.453 0.490279C105.453 0.490279 101.122 -1.42402 98.5645 2.31263C96.0065 6.04927 95.8309 10.2373 96.1068 13.3387L157.941 49.1503Z" fill="#73C9F9"/>
<path d="M113.979 93.3134L153.954 116.076C154.167 116.176 154.41 116.192 154.634 116.123C154.859 116.053 155.05 115.902 155.169 115.699C155.288 115.496 155.327 115.256 155.279 115.026C155.23 114.796 155.098 114.592 154.907 114.454L114.932 91.6917C114.719 91.5919 114.476 91.5752 114.252 91.645C114.027 91.7147 113.836 91.8657 113.717 92.0686C113.598 92.2714 113.559 92.5115 113.607 92.7417C113.656 92.9719 113.788 93.1758 113.979 93.3134Z" fill="#F2F2F2"/>
<path d="M113.979 99.2229L153.954 121.986C154.167 122.085 154.409 122.102 154.634 122.032C154.859 121.963 155.05 121.811 155.169 121.609C155.288 121.406 155.327 121.166 155.279 120.935C155.23 120.705 155.098 120.501 154.907 120.364L114.907 97.6346C114.703 97.5719 114.485 97.5799 114.286 97.6573C114.087 97.7347 113.921 97.8769 113.813 98.0609C113.706 98.2449 113.664 98.4598 113.694 98.6708C113.724 98.8817 113.825 99.0763 113.979 99.2229Z" fill="#F2F2F2"/>
<path d="M113.979 105.233L153.954 127.996C154.167 128.096 154.41 128.112 154.634 128.043C154.859 127.973 155.05 127.822 155.169 127.619C155.288 127.416 155.327 127.176 155.279 126.946C155.23 126.716 155.098 126.512 154.907 126.374L114.932 103.612C114.719 103.512 114.476 103.495 114.252 103.565C114.027 103.635 113.836 103.786 113.717 103.988C113.598 104.191 113.559 104.431 113.607 104.662C113.656 104.892 113.788 105.096 113.979 105.233Z" fill="#F2F2F2"/>
<path d="M112.976 71.0937L152.951 93.8563C153.164 93.9561 153.406 93.9727 153.631 93.903C153.856 93.8333 154.046 93.6822 154.166 93.4794C154.285 93.2765 154.324 93.0365 154.276 92.8063C154.227 92.576 154.095 92.3722 153.904 92.2346L113.921 69.4719C113.708 69.3722 113.465 69.3555 113.24 69.4252C113.016 69.4949 112.825 69.646 112.706 69.8489C112.587 70.0517 112.547 70.2917 112.596 70.522C112.644 70.7522 112.777 70.9561 112.968 71.0937H112.976Z" fill="#F2F2F2"/>
<path d="M112.976 77.0038L152.951 99.7664C153.164 99.8662 153.407 99.8829 153.631 99.8132C153.856 99.7434 154.047 99.5924 154.166 99.3895C154.285 99.1867 154.324 98.9467 154.276 98.7164C154.227 98.4862 154.095 98.2823 153.904 98.1447L113.929 75.3821C113.716 75.2823 113.473 75.2657 113.249 75.3354C113.024 75.4051 112.833 75.5562 112.714 75.759C112.595 75.9619 112.556 76.2019 112.604 76.4321C112.653 76.6624 112.785 76.8662 112.976 77.0038Z" fill="#F2F2F2"/>
<path d="M112.976 83.0136L152.951 105.776C153.164 105.876 153.407 105.893 153.631 105.823C153.856 105.753 154.047 105.602 154.166 105.399C154.285 105.196 154.324 104.956 154.276 104.726C154.227 104.496 154.095 104.292 153.904 104.154L113.929 81.3919C113.716 81.2921 113.473 81.2754 113.249 81.3452C113.024 81.4149 112.833 81.5659 112.714 81.7688C112.595 81.9716 112.556 82.2117 112.604 82.4419C112.653 82.6721 112.785 82.876 112.976 83.0136Z" fill="#F2F2F2"/>
<path d="M137.747 73.7937C143.629 72.0783 146.453 64.0229 144.055 55.8013C141.657 47.5798 134.945 42.3055 129.064 44.0209C123.182 45.7363 120.358 53.7918 122.756 62.0134C125.154 70.2349 131.866 75.5092 137.747 73.7937Z" fill="white"/>
<path d="M125.824 58.0185L129.595 65.9933C130.046 66.938 131.266 66.6621 131.76 65.9933L140.311 54.8336C141.289 53.5546 139.116 52.3257 138.146 53.5713L129.595 64.7311H131.76L127.99 56.7562C127.304 55.3017 125.139 56.5723 125.824 58.0185Z" fill="#5FAD00"/>
<path d="M138.223 75.4648C144.844 73.5335 148.024 64.4659 145.325 55.2116C142.626 45.9574 135.07 40.021 128.448 41.9523C121.827 43.8836 118.647 52.9512 121.346 62.2055C124.045 71.4597 131.601 77.3961 138.223 75.4648Z" stroke="#F2F2F2" stroke-width="0.471856" stroke-miterlimit="10"/>
<path d="M129.369 85.447C128.852 84.0633 128.406 82.6543 128.031 81.2255C127.864 80.214 128.867 76.3687 128.165 76.1513C127.463 75.934 126.585 78.5421 126.585 78.5421C126.585 78.5421 124.495 73.8274 123.927 73.6017C123.359 73.376 121.662 73.2255 121.252 73.6519C120.842 74.0782 119.714 76.8284 120.215 77.7647C121.301 79.4339 122.479 81.0414 123.743 82.5797C123.927 82.7218 126.125 87.4532 126.418 87.5953C126.711 87.7374 129.152 86.5086 129.369 85.447Z" fill="#FFC9B5"/>
<path d="M152.299 100.702C152.299 100.702 140.813 96.1631 138.815 94.5163C136.817 92.8695 129.62 84.3848 129.62 84.3848C129.62 84.3848 125.44 85.9145 125.49 88.0127C125.49 88.0127 131.342 97.7849 134.059 100.401C136.775 103.018 146.69 109.597 148.863 109.446C151.036 109.296 152.299 100.702 152.299 100.702Z" fill="#DD8C2A"/>
<path d="M144.968 193.668C144.968 193.668 142.226 191.328 139.116 192.231C136.006 193.133 136.675 195.441 138.615 196.887C140.554 198.333 148.019 203.357 150.318 203.307C152.617 203.257 153.118 201.409 153.168 200.139C153.041 198.178 152.815 196.225 152.491 194.287" fill="#768CFB"/>
<path d="M146.681 193.5C146.67 193.586 146.64 193.668 146.593 193.74C146.546 193.813 146.483 193.874 146.409 193.92C146.336 193.966 146.253 193.994 146.167 194.004C146.081 194.014 145.994 194.004 145.912 193.976C145.078 193.712 144.26 193.4 143.463 193.04C143.463 193.04 140.813 193.04 142.426 195.69C144.04 198.34 149.599 199.117 151.312 198.131C153.026 197.144 151.881 194.336 151.881 194.336" fill="#FFC9B5"/>
<path d="M138.514 198.833C138.514 198.833 135.772 196.493 132.663 197.396C129.553 198.298 130.222 200.606 132.161 202.052C134.1 203.498 141.565 208.522 143.864 208.472C146.163 208.422 146.665 206.574 146.715 205.304C146.587 203.343 146.361 201.39 146.038 199.452" fill="#768CFB"/>
<path d="M140.219 198.666C140.208 198.752 140.178 198.834 140.13 198.906C140.083 198.979 140.021 199.04 139.947 199.086C139.874 199.132 139.791 199.16 139.705 199.17C139.619 199.18 139.532 199.17 139.45 199.142C138.616 198.878 137.798 198.566 137.001 198.206C137.001 198.206 134.351 198.206 135.964 200.856C137.578 203.506 143.137 204.283 144.85 203.297C146.564 202.311 145.419 199.502 145.419 199.502" fill="#FFC9B5"/>
<path d="M137.344 126.559C136.449 128.582 135.965 157.547 136.307 165.012C136.65 172.477 140.219 198.692 140.219 198.692C140.219 198.692 142.251 201.777 145.678 201.559C149.105 201.342 148.437 198.583 148.437 198.583C148.437 198.583 152.817 200.615 154.731 196.151C155.442 194.479 158.777 148.327 158.777 143.069C158.663 136.785 156.936 130.637 153.762 125.213" fill="#5EBBFF"/>
<path d="M148.445 198.557C148.445 198.557 150.527 140.041 150.259 138.311C149.992 136.581 150.827 151.143 150.769 155.122C150.761 157.964 149.005 194.603 148.445 198.557Z" fill="#259993"/>
<path d="M137.344 126.559C137.344 126.559 134.318 105.836 138.623 101.924C142.928 98.0117 154.89 95.2364 157.122 97.1842C159.354 99.1319 156.002 121.109 153.778 125.188C151.555 129.268 138.932 128.156 137.344 126.559Z" fill="#F9AA43"/>
<path d="M142.794 86.6831C142.694 86.9757 140.571 95.0425 144.274 96.2128C147.977 97.3831 148.721 92.961 149.089 92.7102C149.457 92.4594 150.618 92.0666 150.56 91.1721C150.501 90.2776 149.097 90.2609 149.097 90.2609C149.097 90.2609 148.554 87.9203 146.89 86.9172C145.227 85.914 142.794 86.6831 142.794 86.6831Z" fill="#FFC9B5"/>
<path d="M146.246 88.9583C146.246 88.9583 143.153 89.0085 141.816 87.6877C141.566 87.4296 141.371 87.1223 141.246 86.7853C141.12 86.4483 141.066 86.0889 141.086 85.7299C141.107 85.3708 141.202 85.0199 141.365 84.6994C141.528 84.3788 141.755 84.0955 142.033 83.8674C142.033 83.8674 140.804 81.4181 143.112 80.8246C143.112 80.8246 143.321 78.5759 147.918 79.6042C152.516 80.6324 156.712 83.8842 156.771 88.0889C156.829 92.2937 157.139 92.7786 158.627 93.7399C160.115 94.7012 159.705 98.3877 155.726 98.5382C151.747 98.6886 146.322 98.3375 145.812 96.3731C145.302 94.4086 148.32 94.1996 148.696 92.1934C148.748 91.8201 148.725 91.4403 148.63 91.0756C148.535 90.7109 148.369 90.3686 148.142 90.0681C147.914 89.7676 147.63 89.515 147.305 89.3245C146.979 89.1341 146.62 89.0097 146.246 88.9583Z" fill="#2C1D1A"/>
<path d="M131.367 123.549C131.367 123.549 128.182 126.943 127.262 127.311C125.854 127.955 124.501 128.712 123.216 129.576C123.643 129.958 124.022 130.39 124.345 130.863C124.346 130.88 124.346 130.897 124.345 130.913C124.755 130.621 125.039 130.404 125.03 130.554C125.03 131.03 121.896 135.11 121.419 135.728C120.943 136.347 122.255 138.37 122.255 138.37C124.278 139.047 126.61 136.999 128.107 135.611C129.603 134.224 130.297 131.014 130.815 130.596C131.333 130.178 135.605 127.361 135.906 126.483C136.207 125.605 131.367 123.549 131.367 123.549Z" fill="#FFC9B5"/>
<path d="M137.636 103.402C136.8 105.25 136.8 107.273 136.449 109.254C136.174 110.667 135.889 112.146 135.563 113.576C135.341 115.033 134.883 116.444 134.209 117.755C133.039 119.703 131.517 121.392 130.188 123.222C129.819 123.62 129.552 124.102 129.411 124.627C129.285 125.906 130.899 129.55 135.371 129.099C137.631 127.273 139.744 125.271 141.691 123.114C144.199 120.163 146.573 110.182 146.33 106.863C146.163 104.606 144.934 102.081 142.794 101.095C142.085 100.806 141.303 100.742 140.556 100.91C139.808 101.079 139.131 101.474 138.614 102.04C138.214 102.436 137.884 102.896 137.636 103.402Z" fill="#F9AA43"/>
<path d="M137.887 126.892C137.887 126.892 141.624 123.715 142.543 121.801C143.463 119.886 144.658 116.442 144.658 116.442C144.658 116.442 142.928 126.398 141.273 127.728C140.121 127.552 138.988 127.273 137.887 126.892Z" fill="#DD8C2A"/>
<defs>
<linearGradient id="paint0_linear_853_1049" x1="18.1387" y1="176.13" x2="29.8502" y2="159.478" gradientUnits="userSpaceOnUse">
<stop stop-color="white" stop-opacity="0"/>
<stop offset="1" stop-color="#D43500"/>
</linearGradient>
<linearGradient id="paint1_linear_853_1049" x1="204.879" y1="172.343" x2="216.591" y2="155.699" gradientUnits="userSpaceOnUse">
<stop stop-color="white" stop-opacity="0"/>
<stop offset="1" stop-color="#D43500"/>
</linearGradient>
<linearGradient id="paint2_linear_853_1049" x1="142.251" y1="200.171" x2="125.657" y2="210.085" gradientUnits="userSpaceOnUse">
<stop stop-color="#808080"/>
<stop offset="1" stop-color="white"/>
</linearGradient>
</defs>
</svg>
